<svg xmlns="http://www.w3.org/2000/svg" xmlns:xlink="http://www.w3.org/1999/xlink" width="530.903" height="567.817" viewBox="0 0 530.903 567.817">
  <defs>
    <linearGradient id="linear-gradient" x1="0.5" y1="0.282" x2="0.5" y2="0.857" gradientUnits="objectBoundingBox">
      <stop offset="0" stop-color="#dfe3ee"/>
      <stop offset="1" stop-color="#fff"/>
    </linearGradient>
  </defs>
  <g id="CM-Login" transform="translate(-474.806 -34.607)">
    <g id="Group_1048" data-name="Group 1048" transform="translate(812.333 256.928) rotate(177)" opacity="0.24">
      <g id="Group_518" data-name="Group 518" transform="translate(206.637 69.222)">
        <g id="Group_517" data-name="Group 517" transform="translate(0 0)">
          <path id="Path_2568" data-name="Path 2568" d="M6.754,8.291c-7.01,6.731-9.348,16.544-3.224,24.78C9.6,41.223,22,42.321,29.931,36.534,49.335,22.372,28.806-4.754,8.8.719c-3.777,1.032-2.821,6.394.894,6.607,5.486.31,10.344.646,15.237,3.419,6.611,3.742,7.09,11.553,3.587,17.58-3.941,6.788-13.3,6.438-18.727,1.94-5.558-4.619-5.478-14.644-.7-19.639A1.651,1.651,0,0,0,6.754,8.291Z" fill="#8aa9fc"/>
        </g>
      </g>
      <g id="Group_631" data-name="Group 631" transform="translate(28.046 66.908)">
        <g id="Group_630" data-name="Group 630" transform="translate(0 0)">
          <path id="Path_2624" data-name="Path 2624" d="M.02,21.415C.778,26.308,3.6,30.484,6.246,34.584c1.537,2.378,4.127,6.877,7.2,7.621,3.627.877,5.686-.421,8.648-2.462,5.4-3.72,10.734-7.51,16.07-11.305,1.824-1.3,2.883-3.76,1.532-5.841q-6.642-10.216-13.28-20.44C25.239.341,22.547-.761,20.58.624,15.058,4.539,9.129,8.17,4.09,12.7c-3.472,3.113.957,8.369,4.827,6.261,5.619-3.069,10.743-7.267,15.972-10.964L19.053,6.465q6.636,10.222,13.28,20.44c.5-1.948,1.018-3.892,1.528-5.841-6.009,4.282-12,8.582-17.943,12.953.009,0-11.713-13.267-13.475-14.467C1.11,18.643-.179,20.135.02,21.415Z" fill="#edc483"/>
        </g>
      </g>
      <g id="Group_633" data-name="Group 633" transform="translate(0 117.94)">
        <g id="Group_632" data-name="Group 632" transform="translate(0 0)">
          <path id="Path_2625" data-name="Path 2625" d="M6.754,8.288c-7.01,6.731-9.348,16.548-3.224,24.78,6.071,8.157,18.47,9.25,26.4,3.463C49.348,22.374,28.806-4.744,8.8.716,5.022,1.752,5.983,7.11,9.7,7.327c5.486.31,10.34.647,15.233,3.419,6.611,3.742,7.094,11.549,3.587,17.58-3.941,6.784-13.3,6.434-18.722,1.931-5.562-4.619-5.482-14.635-.7-19.63A1.654,1.654,0,0,0,6.754,8.288Z" fill="#8aa9fc"/>
        </g>
      </g>
      <g id="Group_635" data-name="Group 635" transform="translate(138.115 184.327)">
        <g id="Group_634" data-name="Group 634" transform="translate(0 0)">
          <path id="Path_2626" data-name="Path 2626" d="M6.417,3.372C4.017,15.837,1.971,28.32.063,40.865a3.822,3.822,0,0,0,4.614,4.614c11.779-1.714,23.531-3.295,35.155-5.867a3.515,3.515,0,0,0,2.086-5.119C35.32,22.887,26.942,6.737,14.534.4,11.377-1.2,6.944,2.269,9.3,5.648,12.758,10.63,17.8,14.407,21.92,18.875A96.478,96.478,0,0,1,35.9,38.013q1.508-2.624,3.011-5.247c-12.182,1.209-24.169,3.4-36.222,5.482q2.371,1.807,4.747,3.618c1.448-12.611,2.746-25.2,3.693-37.856.2-2.688-4.2-3.286-4.707-.638Z" fill="#e3707f"/>
        </g>
      </g>
      <g id="Group_637" data-name="Group 637" transform="translate(89.825 118.295)">
        <g id="Group_636" data-name="Group 636" transform="translate(0 0)">
          <path id="Path_2627" data-name="Path 2627" d="M4.645,41.3A220.284,220.284,0,0,0,10.127,3.454C10.3-.474,3.946-1.408,3.219,2.52A220.662,220.662,0,0,0,0,40.668c-.018,2.639,4.056,3.268,4.645.629Z" fill="#e8947e"/>
        </g>
      </g>
      <g id="Group_639" data-name="Group 639" transform="translate(222.794 157.283)">
        <g id="Group_638" data-name="Group 638" transform="translate(0 0)">
          <path id="Path_2628" data-name="Path 2628" d="M1.711,5.406c12.434,1.736,25.506,2.958,38.065,2.5,4.614-.168,4.437-6.576,0-7.041A216.581,216.581,0,0,0,2.34.756c-2.489.182-3.427,4.256-.629,4.65Z" fill="#edc483"/>
        </g>
      </g>
      <g id="Group_641" data-name="Group 641" transform="translate(122.113 0)">
        <g id="Group_640" data-name="Group 640" transform="translate(0)">
          <path id="Path_2629" data-name="Path 2629" d="M1.155,4.421C12.173,10.359,24.146,16.107,36.08,19.946c3.782,1.218,6.288-4.636,2.71-6.434C27.569,7.889,15.02,3.58,2.975.095c-2.564-.74-4.2,3.047-1.82,4.326Z" fill="#e3707f"/>
        </g>
      </g>
      <g id="Group_643" data-name="Group 643" transform="translate(146.018 103.132)">
        <g id="Group_642" data-name="Group 642" transform="translate(0 0)">
          <path id="Path_2630" data-name="Path 2630" d="M12.729,2.6l-.638-.558C9.186-.52,4.9-.835,2.039,2.039a7.212,7.212,0,0,0,0,10.048l.558.638c2.595,2.918,7.492,2.635,10.132,0s2.927-7.546,0-10.127Z" fill="#fff"/>
        </g>
      </g>
    </g>
    <path id="Path_13799" data-name="Path 13799" d="M6034.737,4296.634h61.289l.938,65.226h-59.041Z" transform="translate(-5453.946 -4047.688)" fill="#8b9dc3"/>
    <path id="Path_13800" data-name="Path 13800" d="M6423.695,4495.318h65.545v91.616l-70.9-4.63,2.192-86.986Z" transform="translate(-5581.739 -4113.878)" fill="#3c97dc" opacity="0.5"/>
    <g id="line" transform="translate(509.964 186.146)">
      <g id="Path_13788" data-name="Path 13788" transform="translate(-5928.528 -4202.461)" fill="none">
        <path d="M5928.528,4202.461h467.655l-13.918,394.583-433.555,3.48Z" stroke="none"/>
        <path d="M 5928.5283203125 4202.46142578125 L 5948.70947265625 4600.52490234375 L 6382.2646484375 4597.044921875 L 6396.18310546875 4202.46142578125 L 5928.5283203125 4202.46142578125 M 5926.42431640625 4200.46142578125 L 6398.2548828125 4200.46142578125 L 6398.181640625 4202.53173828125 L 6384.19580078125 4599.029296875 L 6382.28076171875 4599.044921875 L 5946.80908203125 4602.5400390625 L 5946.7119140625 4600.6259765625 L 5926.42431640625 4200.46142578125 Z" stroke="none" fill="#3b5998"/>
      </g>
      <path id="Path_13789" data-name="Path 13789" d="M6523.928,4202.461v386.448" transform="translate(-6126.88 -4202.461)" fill="none" stroke="#3b5998" stroke-width="2"/>
      <path id="Path_13790" data-name="Path 13790" d="M6425.46,4202.461l-10.707,375.206" transform="translate(-6090.51 -4202.461)" fill="none" stroke="#3b5998" stroke-width="2"/>
      <path id="Path_13791" data-name="Path 13791" d="M6304.777,4202.461l20.342,371.458" transform="translate(-6053.872 -4202.461)" fill="none" stroke="#3b5998" stroke-width="2"/>
      <path id="Path_13792" data-name="Path 13792" d="M6028.633,4202.461l21.413,382.7" transform="translate(-5961.877 -4202.461)" fill="none" stroke="#3b5998" stroke-width="2"/>
      <path id="Path_13793" data-name="Path 13793" d="M6127.371,4202.461V4558.4" transform="translate(-5994.771 -4202.461)" fill="none" stroke="#3b5998" stroke-width="2"/>
      <path id="Path_13794" data-name="Path 13794" d="M5933.106,4295.5h463.051" transform="translate(-5930.054 -4233.457)" fill="none" stroke="#3b5998" stroke-width="2"/>
      <path id="Path_13795" data-name="Path 13795" d="M5937.922,4394.239h457.163" transform="translate(-5931.658 -4266.351)" fill="none" stroke="#3b5998" stroke-width="2"/>
      <path id="Path_13796" data-name="Path 13796" d="M5942.739,4489.4l450.2,5.059" transform="translate(-5933.263 -4298.054)" fill="none" stroke="#3b5998" stroke-width="2"/>
      <path id="Path_13797" data-name="Path 13797" d="M5970.032,4600.545l427.72,20.877" transform="translate(-5942.354 -4335.08)" fill="none" stroke="#3b5998" stroke-width="2"/>
      <path id="Path_13798" data-name="Path 13798" d="M5970.032,4708.916h401.49" transform="translate(-5942.354 -4371.183)" fill="none" stroke="#3b5998" stroke-width="2"/>
    </g>
    <path id="arrow" d="M6398.365,4462.592l-46.783,19.493-90.642-89.667H6091.11l-101.119-40.447h7.066l-2.68-10.478-28.752,6.091,14.132,28.508,7.066-5.6-1.95-7.066,125.241,55.8s159.11,7.553,159.841,7.553,13.4,5.361,13.4,5.361l60.915,58.722,54.093-21.686Z" transform="translate(-5430.922 -4062.633)" fill="#dc3c40"/>
    <path id="Path_13804" data-name="Path 13804" d="M5962.242,4534.805s3.8-59.551-27.241-53.849-53.849,23.441-39.912,58.6,49.731,60.5,48.147,60.5-30.726,4.435-30.726,4.435,24.3-16.973,4.811-15.286-25.3,11.059-28.677,22.866-3.562,14.432-3.562,14.432-31.113,65.976,20.618,74.035,112.271-9.933,116.02-10.684,179.372,4.124,195.491,5.811,60.353-12.183,71.224-8.622,68.412,12.183,83.781,12.745,39.923-7.872,26.24-16.494-34.675,4.077-34.112-21.929,61.29-63.539,36.362-82.095-42.922-8.809-48.17,3,3.749,25.678,3.749,25.678-27.74-13.87-38.986-8.435-16.494,18.743-16.494,18.743-14.432-57.167-54.917-47.045-13.307,48.732-12.558,49.294,22.3,18.931,22.3,18.931-30.363,3.937-29.239,12.183,5.248,11.058,5.248,11.058-15.557,4.686-15.557,5.623,16.682-29.8-3.374-47.795-15.932-14.057-15.932-14.057,28.864-42.172-14.432-68.6-146.266-30.794-148.943-31.865-23.019,8.029-24.625,9.635-31.048,10.171-37.472,13.383S5962.242,4534.805,5962.242,4534.805Z" transform="translate(-5401 -4108.965)" fill="url(#linear-gradient)"/>
    <g id="person" transform="translate(564.439 62.664)">
      <g id="pants" transform="translate(50.854 455.941)">
        <path id="Path_13764" data-name="Path 13764" d="M6202.253,4704.174c1.706,0,31.188-3.168,31.188-3.168l5.6,3.168-5.6,18.761,26.071,37.28s-3.655,9.5-2.437,12.67-44.59,11.939-95.027,11.939-80.894-2.924-74.8-10.477,15.106-28.752,15.106-30.457-7.553-20.955-7.553-20.955Z" transform="translate(-6086.475 -4701.006)" fill="#8b3a14"/>
        <path id="Path_13765" data-name="Path 13765" d="M6155.294,4719.7c3-.74,92.028-7.674,92.028-7.674l-3.186,16.306s-125.39,15.369-125.39,15.932,3.561-17.244,3.561-17.244Z" transform="translate(-6097.226 -4704.677)" fill="#e8c3aa" opacity="0.18"/>
      </g>
      <path id="Path_13763" data-name="Path 13763" d="M6149.51,4328.626s45.992,2.422,50.318,4.729,10.38,6.056,10.38,6.056-35.9,7.353-44.838,4.469-17.013-11.534-17.013-12.11A18.582,18.582,0,0,1,6149.51,4328.626Z" transform="translate(-6056.236 -4121.01)"/>
      <g id="head" transform="translate(33.564 39.77)">
        <path id="face" d="M6145.707,4232.634l7.929,40.89,43.829,54.209s6.506-18.8,7.54-34.14c.561-8.321-3.385-16.429-4.368-17.619-2.739-3.316-11.246-5.335-11.246-5.335s-5.911-21.193-3.893-24.942,20.041-6.632,24.654-14.994.289-25.087-.865-33.881.865-20.185.865-20.185l-8.65-.721s-11.246-19.607-19.175-28.69-26.1-17.445-26.1-17.445l-19.9-1.442-16.147,3.028,2.451,19.463s-13.7,40.225-13.264,40.657,29.268,30.276,29.844,30.421S6145.707,4232.634,6145.707,4232.634Z" transform="translate(-6076.812 -4094.055)" fill="#e8c3aa"/>
        <path id="Path_13730" data-name="Path 13730" d="M6129.732,4192.763s22.082-12.735,27.6-25.422-5.538-25.327-5.538-25.327,11.391,3.46,21.627,7.208,21.77,13.7,21.77,13.7-3.877,14.068,0,14.987,10.9.788,10.9.788-8.148-15.881-10.9-18.769-12.66-15.88-12.66-15.88-38.521-12.075-38.456-7.285-4.4,29.4-4.068,30.318-14.962,26.644-14.962,26.644Z" transform="translate(-6082.034 -4096.486)" fill="#e5ad93"/>
        <path id="neck" d="M6149.558,4254.248c1-.111,0-4.77,8.651-1s20.185,15.637,30.055,19.3,17.412,4.769,22.625,4.548a35.614,35.614,0,0,0,9.094-1.554s-18.521,7.986-20.185,9.316-2,6.654-1.22,11.313,4.88,18.077,4.88,18.077-37.486-48.243-42.033-52.347S6149.558,4254.248,6149.558,4254.248Z" transform="translate(-6090.201 -4135.178)" fill="#e5ad93"/>
        <path id="Path_13725" data-name="Path 13725" d="M6087.188,4128.678s-29.612,14.528-26.4,30.831,11.313,22.4,27.171,30.388,24.843,10.314,33.161,17.523,11.534,12.421,11.534,12.421-2.44-18.3-7.652-20.961-17.19-7.1-18.41-17.523,4.1-9.094,9.981-12.31,14.417-17.19,14.528-23.512-6.543-19.076-6.543-19.076,15.6,5.28,16.542-.9,20.167,7,25.934,6.671,42.1-7.8,39.291-31.412-26.647-26.924-44.614-21.822-53.012.222-63.66,9.648S6087.188,4128.678,6087.188,4128.678Z" transform="translate(-6060.549 -4076.928)" fill="#3b5998"/>
        <path id="Path_13727" data-name="Path 13727" d="M6084.788,4218.566c-.171-.853-10.919-9.213-9.98-11.261s9.127-22.01,23.8-22.522,12.967,2.3,7.251,6.568-5.033,5.46-5.033,5.46,8.531-4.521,17.4-3.924,9.47,3.583,9.47,3.583a20.551,20.551,0,0,1-11.432,9.3c-8.1,2.645-8.873,11.432-4.777,16.55s12.37,11.688,16.209,14.844,8.275,15.271,8.275,15.271-5.716-9.384-21.754-17.489S6084.788,4218.566,6084.788,4218.566Z" transform="translate(-6065.28 -4112.839)" opacity="0.25"/>
        <path id="Path_13726" data-name="Path 13726" d="M6093.133,4237.309s32.446,14.728,37.762,18.337,9.515,12.928,9.515,12.928-3.741-7.81-25.068-18.44-27.3-13.912-27.3-13.912Z" transform="translate(-6069.708 -4129.995)" fill="#fff" opacity="0.6"/>
        <path id="Path_13728" data-name="Path 13728" d="M6141.226,4228.335c4.872,1.931,11.964,7.433,11.459,9.036s-8.859,1.476-13.73-.455-6.259-5.667-5.754-7.269S6136.355,4226.4,6141.226,4228.335Z" transform="translate(-6084.72 -4127.077)" fill="#e5ad93" opacity="0.35"/>
        <path id="Path_13729" data-name="Path 13729" d="M6149.016,4238.477l-5.631-6.174s-1.708,2.213-3.922,1.01-8.348-8.31-5.009-9.552,8.077.349,10.989,1.709,6.951,4.542,6.291,5.591-4.7.35-4.7.35l2.8,6.833-5.747-6.833s.582-4.776-2.446-5.941-8.465-1.476-6.641,1.281,4.7,5.746,5.437,5.785,2.951-1.475,2.951-1.475Z" transform="translate(-6084.845 -4125.694)" fill="#f3a17a"/>
        <path id="Path_13731" data-name="Path 13731" d="M6179.425,4168.326c1.413-1.666,3.937-6.663,10.8-5.3a13.638,13.638,0,0,1,9.44,7.168,13.708,13.708,0,0,0-10.607-.466,37.355,37.355,0,0,0-10.834,6.483S6178.012,4169.992,6179.425,4168.326Z" transform="translate(-6099.748 -4105.534)" fill="#3b5998"/>
        <path id="Path_13732" data-name="Path 13732" d="M6201.3,4163.861a13.555,13.555,0,0,1,5.287,3.884,14.5,14.5,0,0,1,1.673,2.688l2.15-.27a9.306,9.306,0,0,0-4.9-5.018C6201.867,4163.652,6201.3,4163.861,6201.3,4163.861Z" transform="translate(-6107.439 -4105.886)" fill="#3b5998"/>
        <path id="Path_13733" data-name="Path 13733" d="M6197.224,4191.536a12.312,12.312,0,0,0,7.875,2.928,16.026,16.026,0,0,0,6.562-1.414s.5,3.13-5.1,3.483S6197.224,4191.536,6197.224,4191.536Z" transform="translate(-6106.081 -4115.109)"/>
        <path id="Path_13734" data-name="Path 13734" d="M0,2.67A3.265,3.265,0,0,1,4.378.18c3.6.951,6.194,9.147,6.194,9.147s-3.19-5.072-5.6-4.438-3,1.268-3.524,1.087S0,2.67,0,2.67Z" transform="matrix(1, -0.017, 0.017, 1, 112.19, 63.047)" fill="#3b5998"/>
        <path id="Path_13735" data-name="Path 13735" d="M6228.427,4173.1s2.2,4.864,1.543,4.864h-2.946l-1.029-4.537Z" transform="translate(-6117.146 -4108.969)" fill="#3b5998"/>
        <path id="Path_13736" data-name="Path 13736" d="M6233.7,4197.347c.208,0,6.093-1.493,7.617-1.195s2.389,2.21-.717,2.33A23.555,23.555,0,0,1,6233.7,4197.347Z" transform="translate(-6118.233 -4116.633)"/>
        <path id="Path_13737" data-name="Path 13737" d="M6236.956,4214.164c.394.065,13.781,8.4,13.781,8.4l.984-20.475Z" transform="translate(-6119.317 -4118.625)" fill="#e5ad93"/>
        <path id="Path_13738" data-name="Path 13738" d="M6233.7,4201.007c.924.065,15.493.395,15.493.395s-.262.983-5.053.983A52.362,52.362,0,0,1,6233.7,4201.007Z" transform="translate(-6118.233 -4118.264)" fill="#fff"/>
        <g id="Group_1021" data-name="Group 1021" transform="translate(118.491 109.482) rotate(-20)">
          <path id="Path_16" data-name="Path 16" d="M0,10.769S6.373-1.941,8.606.255s1.836,12.566.36,13.683c-.6.455-2.763,2.34-5,1.548S0,10.769,0,10.769Z" transform="translate(0 0)" fill="#383a3d"/>
          <path id="Path_17" data-name="Path 17" d="M0,3.732a17.393,17.393,0,0,0,3.281.128A5.645,5.645,0,0,0,5.518,3.2S5.236-.129,3.857,0,0,3.732,0,3.732Z" transform="translate(4.062 0.507)" fill="#fff"/>
          <path id="Path_18" data-name="Path 18" d="M0,2.016s3.084-2.21,5.3-2S8.927,3.487,8.927,3.487,6.6,6.8,4.346,6.533,0,2.016,0,2.016Z" transform="translate(0.547 8.742)" fill="#dc3c40"/>
        </g>
        <path id="Path_13807" data-name="Path 13807" d="M76.856,7.832C78.187,8,113.32-2.105,129.411,4.339s19.125,23.45,8.98,35.757-31.6,13.8-31.6,13.8S127.682,33.27,120.2,21.753,76.856,7.832,76.856,7.832Z" fill="#fff" opacity="0.11"/>
      </g>
      <g id="body" transform="translate(0 207.617)">
        <path id="Path_13739" data-name="Path 13739" d="M6102.057,4328.626c2.062.187,22.866,14.995,28.676,14.995s9.934,1.874,10.684,1.874,22.3,46.856,22.3,46.856,5.624-30.55,6-36.548-10.309-13.87-10.309-13.87l-2.249-3.749s-1.5-6.56,7.872-5.81,23.991,18.555,38.61,25.115,38.422,13.495,50.231,11.62,25.115-15.931,27.177-15.556,4.5,4.873,4.5,4.873,7.872-3.186,8.622-2.624,6.56,51.167,10.5,53.979,9.371-.937,9.371-.937-.75,10.309-4.311,13.683-20.8,12.37-20.8,12.37,2.437,22.491-17.431,18.555-71.6-31.862-71.6-31.862-3.566,73.008,3.749,85.678,21.743,54.145,19.869,57.331-16.493,12.933-16.493,12.933L6083.5,4589.6l-1.949-4.143s7.553-74.071,7.8-80.894,1.95-26.072,1.95-26.072l-19.736-29.238s-2.682,5.322-2.495,9.445,3.936,23.991,3.936,23.991l-6.935,7.872s10.122,12.98,9.185,16.705-12.745,16.47-12.745,16.47l-11.621-7.5s-12.933,13.121-16.119,21.555a114.341,114.341,0,0,0-4.873,19.117l-19.68-6.935s5.436-35.8,16.494-78.908,20.055-87.715,29.8-93.338,37.673-13.683,37.673-13.683l-1.874-1.5s8.247-13.12,8.247-22.679S6102.057,4328.626,6102.057,4328.626Z" transform="translate(-6010.217 -4328.626)" fill="#383a3d"/>
        <g id="Group_1022" data-name="Group 1022" transform="translate(9.773 4.136)" opacity="0.16">
          <path id="Path_13740" data-name="Path 13740" d="M6150.585,4334.829c.443.222,31.607,16.636,31.607,16.636l-20.96,38.595-1.109-.888,12.865-35.489-23.733-15.97Z" transform="translate(-6066.31 -4334.829)" fill="#fff"/>
          <path id="Path_13741" data-name="Path 13741" d="M6076.054,4403.5c1.3,0,38.928-13.552,38.928-13.552s-.144-4.613-6.92-1.586-28.4,10.093-30.566,12.4S6076.054,4403.5,6076.054,4403.5Z" transform="translate(-6041.885 -4352.321)" fill="#fff"/>
          <path id="Path_13742" data-name="Path 13742" d="M6065.527,4419.364s12.688,53.489,6.632,58.535-27.25,22.347-27.25,22.347,36.765,5.046,33.3,7.208-42.532-3.171-42.532-3.171,33.16-23.356,32.872-37.053S6065.527,4419.364,6065.527,4419.364Z" transform="translate(-6028.475 -4362.991)" fill="#fff"/>
          <path id="Path_13743" data-name="Path 13743" d="M6033.956,4575.46c.576-.144,30.133-1.874,34.17,0s7.64,2.019,4.757,3.6-14.562,2.451-14.562,2.451-16.724,13.552-21.049,21.77-12.4,26.24-12.4,26.24,9.66-30.854,17.012-38.495,8.939-9.516,8.939-9.516Z" transform="translate(-6024.873 -4414.705)" fill="#fff"/>
          <path id="Path_13744" data-name="Path 13744" d="M6237.08,4338.6s7,2.132,10.238,7.849-.427,34.722-.427,34.722,3.071-23.375-1.792-29.347A65.106,65.106,0,0,1,6237.08,4338.6Z" transform="translate(-6095.567 -4336.087)" fill="#fff"/>
          <path id="Path_13745" data-name="Path 13745" d="M6267.655,4356.515s43.253,20.3,45.9,21.157,21.242,6.654,24.313,6.91a16.874,16.874,0,0,0,4.265,0s-9.811,4.607-32.588-5.716A393.108,393.108,0,0,1,6267.655,4356.515Z" transform="translate(-6105.753 -4342.054)" fill="#fff"/>
          <path id="Path_13746" data-name="Path 13746" d="M6391.861,4400.919c2,0,6.21.333,6.765,0s6.1-19.3,4.769-21.848-8.761-6.654-8.761-6.654-45.36,32.052-40.037,33.05,40.813-24.732,40.813-24.732Z" transform="translate(-6134.573 -4347.351)" fill="#fff"/>
        </g>
      </g>
      <g id="Brief_case" data-name="Brief case" transform="translate(4.629 449.337) rotate(-49)">
        <g id="Group_1023" data-name="Group 1023" transform="translate(5.999 40.764)">
          <path id="Path_13749" data-name="Path 13749" d="M174.774,44.584V0L98.515,18.828H76.257L0,0V44.438C31.664,49.508,100.691,57.271,174.774,44.584Z" transform="translate(0 0)" fill="#383a3d"/>
          <path id="Path_13750" data-name="Path 13750" d="M0,0V32.615A10.886,10.886,0,0,0,10.886,43.5H163.892a10.883,10.883,0,0,0,10.882-10.883V.146C100.691,12.833,31.664,5.069,0,0Z" transform="translate(0 44.438)" fill="#adbbd8"/>
        </g>
        <g id="Group_1038" data-name="Group 1038" transform="translate(0 0)">
          <g id="Group_1036" data-name="Group 1036" transform="translate(0)">
            <g id="Group_1031" data-name="Group 1031">
              <g id="Group_1027" data-name="Group 1027">
                <path id="Path_13751" data-name="Path 13751" d="M175.142,0H11.634A11.632,11.632,0,0,0,0,11.629V71.754S39.725,85.21,92.009,85.21s94.762-13.456,94.762-13.456V11.629A11.628,11.628,0,0,0,175.142,0Z" transform="translate(0 4.846)" fill="#fff"/>
                <g id="Group_1026" data-name="Group 1026">
                  <g id="Group_1025" data-name="Group 1025">
                    <g id="Group_1024" data-name="Group 1024">
                      <path id="Path_13752" data-name="Path 13752" d="M175.142,0H11.634A11.631,11.631,0,0,0,0,11.629V71.754S41.769,86.469,93.544,86.469s93.227-14.715,93.227-14.715V11.629A11.628,11.628,0,0,0,175.142,0Z" fill="#8b9dc3"/>
                    </g>
                  </g>
                </g>
              </g>
              <g id="Group_1030" data-name="Group 1030" transform="translate(22.373 70.178)">
                <g id="Group_1028" data-name="Group 1028" transform="translate(0 0)">
                  <path id="Path_13753" data-name="Path 13753" d="M8.034,31.789A8.032,8.032,0,0,1,0,23.757V8.033A8.034,8.034,0,0,1,8.034,0h3.155a8.035,8.035,0,0,1,8.035,8.033V23.757a8.033,8.033,0,0,1-8.035,8.032Z" fill="#fff"/>
                  <path id="Path_13754" data-name="Path 13754" d="M6.011,23.789A6.011,6.011,0,0,1,0,17.778V6.011A6.012,6.012,0,0,1,6.011,0H8.373a6.012,6.012,0,0,1,6.01,6.011V17.778a6.011,6.011,0,0,1-6.01,6.011Z" transform="translate(2.419 4.001)" fill="#3b5998"/>
                </g>
                <g id="Group_1029" data-name="Group 1029" transform="translate(122.803 0)">
                  <path id="Path_13755" data-name="Path 13755" d="M8.034,31.789A8.032,8.032,0,0,1,0,23.757V8.033A8.034,8.034,0,0,1,8.034,0h3.155a8.035,8.035,0,0,1,8.035,8.033V23.757a8.033,8.033,0,0,1-8.035,8.032Z" transform="translate(0)" fill="#fff"/>
                  <path id="Path_13756" data-name="Path 13756" d="M6.011,23.789A6.011,6.011,0,0,1,0,17.778V6.011A6.012,6.012,0,0,1,6.011,0H8.373a6.012,6.012,0,0,1,6.011,6.011V17.778a6.011,6.011,0,0,1-6.011,6.011Z" transform="translate(2.42 4.001)" fill="#3b5998"/>
                </g>
              </g>
            </g>
          </g>
        </g>
        <path id="Path_13766" data-name="Path 13766" d="M62.371.343S168.1-1.165,171.718,2.144s4.211,49.983,3.793,48.359-9.248-46.349-9.248-46.349S-6.024,11.37.163,6.489,62.371.343,62.371.343Z" transform="translate(7.644 3.479)" fill="#fff" opacity="0.2"/>
      </g>
      <g id="hand" transform="translate(20.579 395.441)">
        <path id="Path_13757" data-name="Path 13757" d="M6061.313,4610.281s22.059,16.58,46.857,21.194,43.974,1.153,47.867,1.73,17.925,12.178,21.935,12.6,11.432-.427,11.175.768-1.621,6.825-11.175,4.266a50.468,50.468,0,0,1-16.465-8.019s30.029,31.906,28.75,32.844a12.692,12.692,0,0,1-5.375,1.45c-.6-.085-6.825,10.92-16.209,8.276s-40.1-29.688-50.76-31.736-74.817-1.792-76.012-2.73-1.621-11.858,4.607-22.948A63.938,63.938,0,0,1,6061.313,4610.281Z" transform="translate(-6041.11 -4610.281)" fill="#e8c3aa"/>
        <path id="Path_13758" data-name="Path 13758" d="M6207.545,4682.748s13.394,7,20.133,11.346a52.789,52.789,0,0,0,12.2,5.972s-12.626-.853-20.3-7.507S6207.545,4682.748,6207.545,4682.748Z" transform="translate(-6096.535 -4634.423)" fill="#e5ad93"/>
        <path id="Path_13759" data-name="Path 13759" d="M6195.775,4685.435s16.465,12.028,23.8,15.014a84.415,84.415,0,0,0,13.82,4.266s-6.483,3.071-17.4-2.986S6195.775,4685.435,6195.775,4685.435Z" transform="translate(-6092.613 -4635.318)" fill="#e5ad93"/>
        <path id="Path_13760" data-name="Path 13760" d="M6201.882,4678.03c1.666-.353,8.935-1.009,17.416,3.786s19.233,16.355,19.233,16.355-8.178-2.423-13.731-5.906-17.719-10.8-20.394-11.51S6201.882,4678.03,6201.882,4678.03Z" transform="translate(-6094.647 -4632.77)" fill="#fff" opacity="0.2"/>
        <path id="Path_13761" data-name="Path 13761" d="M6054.677,4622.731c.333.222,6.433,23.068,22.181,26.174s40.369,8.1,40.369,8.1-74.084-.444-75.748-2.773,2.108-17.189,6.1-23.4S6054.677,4622.731,6054.677,4622.731Z" transform="translate(-6041.077 -4614.429)" fill="#e5ad93"/>
        <path id="Path_13762" data-name="Path 13762" d="M6219.178,4655.134c.6.06,14.725,7.826,18.19,8.423a46.661,46.661,0,0,0,8.872.209s-4.183,3.973-12.456.417A62.837,62.837,0,0,1,6219.178,4655.134Z" transform="translate(-6100.41 -4625.224)" fill="#e5ad93"/>
      </g>
      <g id="tie" transform="translate(146.022 263.543)">
        <path id="Path_13747" data-name="Path 13747" d="M6229.188,4417.365s10.235-6.2,11.966-4.613,2.739,13.984,2.019,14.273-6.632,2.739-7.064,1.874S6229.188,4417.365,6229.188,4417.365Z" transform="translate(-6229.188 -4412.492)" fill="#3b5998"/>
        <path id="Path_13748" data-name="Path 13748" d="M6239.089,4436.257s-8.061,32.443,12.931,33.943,47.044,14.62,38.236,23.8-25.865,8.809-25.865,8.809l-17.806,20.055,24.928,3.186s62.6-25.3,41.609-46.294-56.791-12.746-61.1-23.054a119.259,119.259,0,0,1-6.372-22.679Z" transform="translate(-6231.979 -4419.667)" fill="#2d599e"/>
      </g>
      <g id="hand-2" data-name="hand" transform="translate(284.547 101.954)">
        <path id="Path_13767" data-name="Path 13767" d="M6436.914,4304.538s17.619-24.553,25.116-51.917,1.757-45.431,10.407-58.839,13.409-24.8,14.851-23.5,2.163,11.1,0,16.58a35.225,35.225,0,0,0-2.451,8.507s6.055,3.461,13.12-3.6,25.087-16.292,25.52-16.437,4.326-1.442,3.46,0-7.065,14.995-8.506,18.455-21.916,20.041-25.664,25.375-14.273,27.25-15.715,47-10.237,76.413-16.581,85.208-13.841,16.148-16.292,7.064S6436.914,4304.538,6436.914,4304.538Z" transform="translate(-6436.914 -4170.178)" fill="#e8c3aa"/>
        <path id="Path_13768" data-name="Path 13768" d="M6507.8,4179.875s-9.214,23.034-6.826,24.143,14.248.427,20.817-3.157,22.351-22.607,22.351-22.607-12.8,8.019-19.621,12.285-17.148,9.384-18,7.934,2.73-17.4,3.071-19.622a9.325,9.325,0,0,0-.768-4.607Z" transform="translate(-6458.123 -4171.533)" fill="#e5ad93" opacity="0.15"/>
        <path id="Path_13769" data-name="Path 13769" d="M6520.755,4200.6s-28.324,22.778-31.821,25.167-5.46,7.507-5.545,14.162-34.892,129.247-31.821,129.759,16.892-11,21.668-40.267,9.47-86.762,22.864-100.07,18.769-16.039,21.925-20.731,7.592-12.626,7.592-12.626Z" transform="translate(-6441.731 -4178.779)" fill="#e5ad93"/>
        <path id="Path_13770" data-name="Path 13770" d="M6492.732,4226.979c1.279.085,9.9-3.754,13.309-2.9s5.119,2.133,2.986,4.863-7.763,7.849-11.347,6.654S6492.732,4226.979,6492.732,4226.979Z" transform="translate(-6455.509 -4188.093)" fill="#fff" opacity="0.13"/>
        <path id="Path_13771" data-name="Path 13771" d="M6507.694,4210.128c1.06.555,9.743,4.594,9.137,4.645s-9.692-2.928-10.3-3.786S6507.694,4210.128,6507.694,4210.128Z" transform="translate(-6460.064 -4183.487)" fill="#f3a17a"/>
        <path id="Path_13772" data-name="Path 13772" d="M6521.231,4202.741c.2,0,28.622-20.7,28.622-20.7s-27.057,21.656-28.067,21.908S6521.231,4202.741,6521.231,4202.741Z" transform="translate(-6464.97 -4174.131)" fill="#f3a17a"/>
        <path id="Path_13773" data-name="Path 13773" d="M6525.672,4208.191s14.791-11.308,18.526-14.69a20.575,20.575,0,0,0,4.947-6.159s-5.148,10.954-14.336,16.608S6525.672,4208.191,6525.672,4208.191Z" transform="translate(-6466.483 -4175.896)" fill="#f3a17a"/>
      </g>
      <g id="law" transform="matrix(0.966, -0.259, 0.259, 0.966, 234.323, 45.606)">
        <g id="Group_1046" data-name="Group 1046" transform="translate(0 0)">
          <path id="Path_13774" data-name="Path 13774" d="M150.458,2.054c0,1.131-1.806,2.054-4.012,2.054H4.013C1.8,4.109,0,3.185,0,2.054S1.8,0,4.013,0H146.447C148.653,0,150.458.924,150.458,2.054Z" transform="translate(12.876 29.396)" fill="#dca73c"/>
          <g id="Group_1039" data-name="Group 1039" transform="translate(33.866 149.209)">
            <path id="Path_13775" data-name="Path 13775" d="M77.168,11.313C69.149,4.524,54.872,0,38.585,0S8.02,4.524,0,11.313Z" transform="translate(15.655 0)" fill="#8b3a14"/>
            <path id="Path_13776" data-name="Path 13776" d="M94.723,3.37a3.371,3.371,0,0,1-3.368,3.37H3.369A3.371,3.371,0,0,1,0,3.37H0A3.371,3.371,0,0,1,3.369,0H91.355a3.37,3.37,0,0,1,3.368,3.37Z" transform="translate(6.877 11.313)" fill="#fff"/>
            <path id="Path_13777" data-name="Path 13777" d="M108.477,3.856a3.858,3.858,0,0,1-3.858,3.859H3.859A3.859,3.859,0,0,1,0,3.856H0A3.857,3.857,0,0,1,3.859,0H104.619a3.857,3.857,0,0,1,3.858,3.856Z" transform="translate(0 18.054)" fill="#8b3a14"/>
          </g>
          <path id="Path_13778" data-name="Path 13778" d="M20.061,34.106A10.028,10.028,0,0,1,10.031,44.134h0A10.03,10.03,0,0,1,0,34.106V10.031A10.032,10.032,0,0,1,10.031,0h0A10.03,10.03,0,0,1,20.061,10.031Z" transform="translate(78.073 113.792)" fill="#f3a17a"/>
          <rect id="Rectangle_932" data-name="Rectangle 932" width="9.832" height="135.412" transform="translate(83.189 9.474)" fill="#8b3a14"/>
          <g id="Group_1040" data-name="Group 1040" transform="translate(75.762 19.156)">
            <path id="Path_13779" data-name="Path 13779" d="M24.686,12.343A12.343,12.343,0,1,1,12.343,0,12.342,12.342,0,0,1,24.686,12.343Z" transform="translate(0 0)" fill="#adbbd8"/>
            <path id="Path_13780" data-name="Path 13780" d="M11.927,5.964A5.964,5.964,0,1,1,5.964,0,5.962,5.962,0,0,1,11.927,5.964Z" transform="translate(6.379 6.379)" fill="#383a3d"/>
          </g>
          <path id="Path_13781" data-name="Path 13781" d="M14.725,5.141H14.67a5.141,5.141,0,1,0-10.282,0H4.334a4.333,4.333,0,1,0,0,8.666H14.725a4.333,4.333,0,1,0,0-8.666Z" transform="translate(78.575 0)" fill="#383a3d"/>
          <g id="Group_1045" data-name="Group 1045" transform="translate(0 31.45)">
            <g id="Group_1042" data-name="Group 1042" transform="translate(115.017 0)">
              <path id="Path_13782" data-name="Path 13782" d="M.155,47.633q13.106-23.2,26.214-46.4a1.232,1.232,0,1,1,2.463,0l26.214,46.4a1.117,1.117,0,0,1-1.927,1.127Q40.357,26.177,27.6,3.594,14.842,26.178,2.081,48.76A1.117,1.117,0,0,1,.155,47.633Z" transform="translate(2.996 0)" fill="#dca73c"/>
              <g id="Group_1041" data-name="Group 1041" transform="translate(0 46.885)">
                <path id="Path_13783" data-name="Path 13783" d="M0,1.765A1.766,1.766,0,0,0,1.766,3.531H59.428a1.765,1.765,0,0,0,1.763-1.765h0A1.765,1.765,0,0,0,59.428,0H1.766A1.766,1.766,0,0,0,0,1.765Z" fill="#adbbd8"/>
                <path id="Path_13784" data-name="Path 13784" d="M0,0A28.488,28.488,0,0,0,27.042,19.541,28.488,28.488,0,0,0,54.083,0Z" transform="translate(3.555 3.531)" fill="#dca73c"/>
              </g>
            </g>
            <g id="Group_1044" data-name="Group 1044" transform="translate(0 0)">
              <path id="Path_13785" data-name="Path 13785" d="M.154,47.633l26.215-46.4a1.231,1.231,0,1,1,2.462,0q13.109,23.2,26.214,46.4a1.117,1.117,0,0,1-1.927,1.127Q40.358,26.177,27.6,3.594,14.84,26.178,2.083,48.76A1.117,1.117,0,0,1,.154,47.633Z" transform="translate(2.996 0)" fill="#dca73c"/>
              <g id="Group_1043" data-name="Group 1043" transform="translate(0 46.885)">
                <path id="Path_13786" data-name="Path 13786" d="M0,1.765A1.766,1.766,0,0,0,1.766,3.531H59.428a1.766,1.766,0,0,0,1.764-1.765h0A1.766,1.766,0,0,0,59.428,0H1.766A1.766,1.766,0,0,0,0,1.765Z" transform="translate(0 0)" fill="#8b9dc3"/>
                <path id="Path_13787" data-name="Path 13787" d="M0,0A28.487,28.487,0,0,0,27.042,19.541,28.488,28.488,0,0,0,54.082,0Z" transform="translate(3.557 3.531)" fill="#dca73c"/>
              </g>
            </g>
          </g>
          <path id="Path_13805" data-name="Path 13805" d="M0,0S10.936,13.608,18.63,13.6,40.039,9.121,40.039,9.121,20.594,19.985,11.678,14.266A29.626,29.626,0,0,1,0,0Z" transform="translate(7.173 83.273)" fill="#fff" opacity="0.27"/>
          <path id="Path_13806" data-name="Path 13806" d="M0,0S7.364,13.226,18.071,14.831s21.352-4.268,21.352-4.268-14.408,4.062-20.692,1.8S0,0,0,0Z" transform="translate(121.287 83.768)" fill="#fff" opacity="0.3"/>
        </g>
      </g>
    </g>
    <path id="Path_13801" data-name="Path 13801" d="M6524.661,4585.466h14.661l-7.5-12.976Z" transform="translate(-5617.16 -4139.587)" fill="#dc3c40"/>
    <path id="Path_13802" data-name="Path 13802" d="M6589.194,4358.122v47.513h45.614v-47.513Z" transform="translate(-5638.659 -4068.172)" fill="none" stroke="#3c97dc" stroke-width="4"/>
    <path id="Path_13803" data-name="Path 13803" d="M5897.6,4254.574v47.2h45.3l1.9-47.2Z" transform="translate(-5408.259 -4033.676)" fill="none" stroke="#f3a17a" stroke-width="14"/>
    <g id="Group_1047" data-name="Group 1047" transform="translate(655.391 270.848)">
      <g id="Group_518-2" data-name="Group 518" transform="translate(148.677 49.805)">
        <g id="Group_517-2" data-name="Group 517" transform="translate(0)">
          <path id="Path_2568-2" data-name="Path 2568" d="M259.15,313.467c-5.044,4.843-6.726,11.9-2.32,17.829,4.365,5.866,13.292,6.656,19,2.492,13.962-10.189-.809-29.707-15.2-25.769-2.718.742-2.03,4.6.644,4.754,3.948.223,7.443.465,10.963,2.46,4.757,2.692,5.1,8.312,2.581,12.649-2.836,4.884-9.571,4.633-13.474,1.4-4-3.323-3.941-10.536-.507-14.13a1.188,1.188,0,0,0-1.679-1.679Z" transform="translate(-254.291 -307.502)" fill="#8aa9fc"/>
        </g>
      </g>
      <g id="Group_631-2" data-name="Group 631" transform="translate(20.18 48.141)">
        <g id="Group_630-2" data-name="Group 630" transform="translate(0)">
          <path id="Path_2624-2" data-name="Path 2624" d="M218.274,316.525c.545,3.521,2.574,6.525,4.48,9.475,1.106,1.711,2.969,4.948,5.181,5.483,2.609.631,4.091-.3,6.222-1.771,3.884-2.676,7.723-5.4,11.562-8.134a3.116,3.116,0,0,0,1.1-4.2q-4.779-7.35-9.555-14.707a3.094,3.094,0,0,0-4.2-1.1c-3.973,2.816-8.239,5.429-11.865,8.685-2.5,2.24.688,6.022,3.473,4.505,4.043-2.208,7.73-5.228,11.492-7.889l-4.2-1.1q4.774,7.355,9.555,14.707c.363-1.4.733-2.8,1.1-4.2-4.324,3.081-8.634,6.175-12.91,9.319.006,0-8.427-9.546-9.7-10.409-.959-.653-1.886.421-1.743,1.341Z" transform="translate(-218.259 -301.117)" fill="#edc483"/>
        </g>
      </g>
      <g id="Group_633-2" data-name="Group 633" transform="translate(0 84.859)">
        <g id="Group_632-2" data-name="Group 632">
          <path id="Path_2625-2" data-name="Path 2625" d="M207.439,324.39c-5.044,4.843-6.726,11.906-2.319,17.829,4.368,5.869,13.289,6.656,19,2.491,13.971-10.186-.809-29.7-15.2-25.769-2.721.745-2.029,4.6.644,4.757,3.948.223,7.439.465,10.96,2.46,4.757,2.692,5.1,8.309,2.581,12.649-2.836,4.881-9.571,4.629-13.471,1.389-4-3.323-3.944-10.53-.507-14.124a1.19,1.19,0,0,0-1.682-1.682Z" transform="translate(-202.58 -318.426)" fill="#8aa9fc"/>
        </g>
      </g>
      <g id="Group_635-2" data-name="Group 635" transform="translate(99.375 132.625)">
        <g id="Group_634-2" data-name="Group 634">
          <path id="Path_2626-2" data-name="Path 2626" d="M243.434,335.921c-1.727,8.969-3.2,17.951-4.572,26.977a2.75,2.75,0,0,0,3.32,3.32c8.475-1.233,16.931-2.37,25.294-4.222a2.529,2.529,0,0,0,1.5-3.683c-4.747-8.351-10.775-19.97-19.7-24.527-2.272-1.157-5.461,1.341-3.769,3.772,2.492,3.584,6.12,6.3,9.084,9.517a69.415,69.415,0,0,1,10.055,13.77q1.085-1.888,2.167-3.776c-8.765.87-17.39,2.447-26.062,3.944q1.706,1.3,3.415,2.6c1.042-9.074,1.975-18.132,2.657-27.238.143-1.934-3.02-2.364-3.387-.459Z" transform="translate(-238.817 -333.495)" fill="#e3707f"/>
        </g>
      </g>
      <g id="Group_637-2" data-name="Group 637" transform="translate(64.63 85.114)">
        <g id="Group_636-2" data-name="Group 636">
          <path id="Path_2627-2" data-name="Path 2627" d="M230.319,349.421a158.5,158.5,0,0,0,3.944-27.228c.124-2.826-4.448-3.5-4.97-.672a158.768,158.768,0,0,0-2.316,27.448c-.013,1.9,2.918,2.351,3.342.453Z" transform="translate(-226.977 -319.707)" fill="#e8947e"/>
        </g>
      </g>
      <g id="Group_639-2" data-name="Group 639" transform="translate(160.302 113.166)">
        <g id="Group_638-2" data-name="Group 638" transform="translate(0 0)">
          <path id="Path_2628-2" data-name="Path 2628" d="M259.171,331.278a159.267,159.267,0,0,0,27.388,1.8c3.32-.121,3.193-4.731,0-5.066a155.834,155.834,0,0,0-26.935-.08c-1.791.131-2.466,3.062-.452,3.345Z" transform="translate(-257.939 -327.388)" fill="#edc483"/>
        </g>
      </g>
      <g id="Group_641-2" data-name="Group 641" transform="translate(87.861)">
        <g id="Group_640-2" data-name="Group 640">
          <path id="Path_2629-2" data-name="Path 2629" d="M236.034,295.051a153.285,153.285,0,0,0,25.129,11.17c2.721.876,4.524-3.336,1.95-4.629a153.392,153.392,0,0,0-25.769-9.654,1.71,1.71,0,0,0-1.309,3.113Z" transform="translate(-235.203 -291.87)" fill="#e3707f"/>
        </g>
      </g>
      <g id="Group_643-2" data-name="Group 643" transform="translate(105.061 74.204)">
        <g id="Group_642-2" data-name="Group 642">
          <path id="Path_2630-2" data-name="Path 2630" d="M249.76,317.028l-.459-.4a5.113,5.113,0,0,0-7.232,7.229l.4.459a5.183,5.183,0,0,0,7.29,0c1.889-1.893,2.106-5.429,0-7.287Z" transform="translate(-240.602 -315.159)" fill="#fff"/>
        </g>
      </g>
    </g>
  </g>
</svg>
