<svg xmlns="http://www.w3.org/2000/svg" width="44.945" height="42" viewBox="0 0 44.945 42">
  <g id="CM_Logo" transform="translate(-12.999 -12)">
    <g id="Path_2086" data-name="Path 2086" transform="translate(38.245 12.303) rotate(60)" fill="#fff">
      <path d="M 31.85790634155273 13.65335464477539 L 31.84327697753906 13.65333461761475 L 7.597936153411865 13.59644412994385 C 4.243386268615723 13.58857440948486 1.507866024971008 10.8530445098877 1.500026106834412 7.498494625091553 C 1.496106028556824 5.82634449005127 2.100396156311035 4.297594547271729 3.201555967330933 3.193854331970215 C 4.255815982818604 2.137124538421631 5.69917631149292 1.55515444278717 7.265736103057861 1.55515444278717 L 7.280995845794678 1.555174469947815 L 7.284446239471436 1.555174469947815 L 7.287896156311035 1.555174469947815 L 31.80389022827148 1.500012993812561 C 35.15703964233398 1.50953471660614 37.8908576965332 4.244418144226074 37.89869689941406 7.597954273223877 C 37.90248489379883 9.217044830322266 37.27663421630859 10.73812484741211 36.13642501831055 11.88100433349609 C 34.99617767333984 13.02392482757568 33.47670745849609 13.65335464477539 31.85790634155273 13.65335464477539 Z" stroke="none"/>
      <path d="M 31.80313110351562 3.000012397766113 L 7.284557342529297 3.055174827575684 L 7.265724182128906 3.055154800415039 C 6.083606719970703 3.055154800415039 5.045425415039062 3.469454765319824 4.263446807861328 4.253284454345703 C 3.445735931396484 5.072904586791992 2.997035980224609 6.224164009094238 3.000015258789062 7.49498462677002 C 3.005935668945312 10.02630424499512 5.070137023925781 12.09051418304443 7.601455688476562 12.09645462036133 L 31.85790634155273 12.15335464477539 C 33.07537460327148 12.15335464477539 34.21771621704102 11.68039417266846 35.07451629638672 10.82159423828125 C 35.9312744140625 9.962823867797852 36.40155792236328 8.81922435760498 36.39870452880859 7.60146427154541 C 36.39279174804688 5.072153091430664 34.33168792724609 3.009210586547852 31.80313110351562 3.000012397766113 M 31.80430603027344 4.76837158203125e-06 C 35.98877716064453 0.009814262390136719 39.3889045715332 3.409964561462402 39.39869689941406 7.594444274902344 C 39.40847778320312 11.77892398834229 36.02455139160156 15.16314506530762 31.83975601196289 15.15333461761475 L 7.594415664672852 15.09644412994385 C 3.409946441650391 15.08662414550781 0.009815216064453125 11.68647384643555 2.6702880859375e-05 7.502004623413086 C -0.00977325439453125 3.317525863647461 3.09881591796875 0.04527759552001953 7.284507751464844 0.05517482757568359 L 31.80430603027344 4.76837158203125e-06 Z" stroke="none" fill="#8b9dc3"/>
    </g>
    <g id="Path_2087" data-name="Path 2087" transform="translate(12.999 46.12) rotate(-60)" fill="#fff">
      <path d="M 7.540804386138916 13.65335178375244 C 5.891004085540771 13.65335178375244 4.351084232330322 13.02050113677979 3.204704284667969 11.87137126922607 C 2.101724147796631 10.76576137542725 1.496324181556702 9.305431365966797 1.500024199485779 7.759421348571777 C 1.503774166107178 6.187971591949463 2.186494112014771 4.599521636962891 3.373114109039307 3.401351451873779 C 4.563863754272461 2.19901442527771 6.154899120330811 1.506350755691528 7.739733695983887 1.500030994415283 L 31.82308387756348 1.767771482467651 L 31.83313369750977 1.767881393432617 L 31.84319496154785 1.767861485481262 L 31.85791397094727 1.767841458320618 C 33.50770568847656 1.767841458320618 35.04762268066406 2.400691509246826 36.19400405883789 3.549811363220215 C 37.2969856262207 4.655431270599365 37.90239334106445 6.115761280059814 37.8986930847168 7.661781311035156 C 37.89089584350586 10.9271411895752 35.15541458129883 13.5899715423584 31.80085372924805 13.59766101837158 L 7.555524349212646 13.6533317565918 L 7.540804386138916 13.65335178375244 Z" stroke="none"/>
      <path d="M 7.735345840454102 3.000067710876465 C 5.260753631591797 3.016222953796387 3.005939483642578 5.281680107116699 3.000003814697266 7.763001441955566 C 2.997272491455078 8.907670974731445 3.447093963623047 9.99049186706543 4.266624450683594 10.81198120117188 C 5.129562377929688 11.67698097229004 6.292354583740234 12.15335178375244 7.540803909301758 12.15335178375244 L 7.552074432373047 12.15334129333496 L 31.79741477966309 12.09767150878906 C 34.3287353515625 12.09186172485352 36.39286422729492 10.10032081604004 36.3986930847168 7.658191680908203 C 36.40143585205078 6.513391494750977 35.95154571533203 5.430471420288086 35.13189315795898 4.608921051025391 C 34.26900482177734 3.744021415710449 33.10636520385742 3.267751693725586 31.85791397094727 3.267841339111328 L 31.82563400268555 3.267891883850098 L 31.80640411376953 3.267671585083008 L 7.735345840454102 3.000067710876465 M 7.745655059814453 1.9073486328125e-06 L 31.83975410461426 0.2678613662719727 C 36.02425765991211 0.2581501007080078 39.40847396850586 3.570231437683105 39.39868545532227 7.665361404418945 C 39.3889045715332 11.76050186157227 35.98877334594727 15.08806133270264 31.80429458618164 15.09766101837158 L 7.558963775634766 15.1533317565918 C 3.374191284179688 15.16294193267822 -0.009765625 11.85097122192383 1.52587890625e-05 7.755831241607666 C 0.009815216064453125 3.660691261291504 3.561172485351562 0.009611129760742188 7.745655059814453 1.9073486328125e-06 Z" stroke="none" fill="#3b5998"/>
    </g>
    <circle id="Ellipse_66" data-name="Ellipse 66" cx="2.101" cy="2.101" r="2.101" transform="translate(33.225 42.734)" fill="#8b9dc3"/>
  </g>
</svg>
