<svg id="Logo" xmlns="http://www.w3.org/2000/svg" width="126.095" height="121.212" viewBox="0 0 126.095 121.212">
  <g id="Group_507" data-name="Group 507" transform="translate(-1018.177 -273.5)">
    <path id="Path_2490" data-name="Path 2490" d="M213.867,268.181a57.531,57.531,0,0,0-35.459,34.393,59.146,59.146,0,0,0,4.428,49.308c16.476,28.367,58.764,37.508,85.481,18.462s31.873-61.991,10.432-86.822-64.7-25.97-87.422-2.306" transform="translate(843.21 12.339)" fill="#dc3c40" opacity="0.64"/>
    <path id="Path_2493" data-name="Path 2493" d="M213.867,268.181a57.531,57.531,0,0,0-35.459,34.393,59.146,59.146,0,0,0,4.428,49.308c16.476,28.367,58.764,37.508,85.481,18.462s31.873-61.991,10.432-86.822-64.7-25.97-87.422-2.306" transform="translate(852.21 14.339)" fill="#8b9dc3" opacity="0.48"/>
    <path id="Path_2489" data-name="Path 2489" d="M213.867,268.181a57.531,57.531,0,0,0-35.459,34.393,59.146,59.146,0,0,0,4.428,49.308c16.476,28.367,58.764,37.508,85.481,18.462s31.873-61.991,10.432-86.822-64.7-25.97-87.422-2.306" transform="translate(850.209 9.339)" fill="#3c97dc" opacity="0.69"/>
  </g>
  <g id="Logo-2" data-name="Logo" transform="translate(26.006 23.498)">
    <g id="Path_2086" data-name="Path 2086" transform="translate(43.099 0.517) rotate(60)" fill="none">
      <path d="M12.436.094,54.295,0A13.008,13.008,0,0,1,67.26,12.965a12.862,12.862,0,0,1-12.9,12.9l-41.391-.1A13.008,13.008,0,0,1,0,12.807,12.31,12.31,0,0,1,12.436.094Z" stroke="none"/>
      <path d="M 54.29219055175781 6.000022888183594 L 12.4036979675293 6.094156265258789 C 10.62409973144531 6.094156265258789 9.066852569580078 6.712202072143555 7.900314331054688 7.881479263305664 C 6.670360565185547 9.114309310913086 5.995498657226562 10.85860252380371 6.000022888183594 12.79303359985352 C 6.009006500244141 16.63221740722656 9.139728546142578 19.7629566192627 12.97891235351562 19.77197265625 L 54.38632965087891 19.86909484863281 C 56.22968292236328 19.86909484863281 57.95896148681641 19.1533260345459 59.25562286376953 17.85363388061523 C 60.55223846435547 16.55397033691406 61.26394653320312 14.82275676727295 61.25963592529297 12.97892570495605 C 61.25065994262695 9.143474578857422 58.12624359130859 6.015104293823242 54.29219055175781 6.000022888183594 M 54.29482269287109 1.9073486328125e-06 C 61.43836212158203 0.01675605773925781 67.24289703369141 5.821325302124023 67.25962066650391 12.96487903594971 C 67.27631378173828 20.10841751098633 61.49827575683594 25.88581657409668 54.3553466796875 25.86906433105469 L 12.96483612060547 25.7719554901123 C 5.821300506591797 25.75518798828125 0.01674652099609375 19.95061874389648 3.814697265625e-05 12.80706405639648 C -0.01668548583984375 5.663524627685547 5.292369842529297 0.07758140563964844 12.43577575683594 0.09418678283691406 L 54.29482269287109 1.9073486328125e-06 Z" stroke="none" fill="#fff"/>
    </g>
    <g id="Path_2087" data-name="Path 2087" transform="translate(0 58.249) rotate(-60)" fill="none">
      <path d="M13.223,0,54.355.457a12.727,12.727,0,0,1,12.9,12.629A12.871,12.871,0,0,1,54.295,25.774l-41.391.1A12.727,12.727,0,0,1,0,13.24,13.575,13.575,0,0,1,13.223,0Z" stroke="none"/>
      <path d="M 13.20325088500977 6.000146865844727 C 9.437870025634766 6.028923034667969 6.009052276611328 9.477632522583008 6.000019073486328 13.25473403930664 C 5.99591064453125 14.97381114959717 6.672710418701172 16.60124206542969 7.905757904052734 17.83724212646484 C 9.212894439697266 19.14750289916992 10.9770622253418 19.86908721923828 12.89054107666016 19.86907196044922 L 54.28104782104492 19.7740421295166 C 58.12023162841797 19.76522636413574 61.25081634521484 16.75851821899414 61.2596321105957 13.07162570953369 C 61.26374053955078 11.35233402252197 60.58681869506836 9.72471809387207 59.35358810424805 8.488611221313477 C 58.04652404785156 7.178533554077148 56.28261566162109 6.457103729248047 54.28866577148438 6.456903457641602 L 13.20325088500977 6.000146865844727 M 13.22301864624023 -3.814697265625e-06 L 54.35535430908203 0.4572715759277344 C 61.49977874755859 0.441009521484375 67.27631378173828 6.094919204711914 67.25962066650391 13.0859489440918 C 67.24289703369141 20.07698059082031 61.4383544921875 25.75762557983398 54.29481887817383 25.77402687072754 L 12.90431213378906 25.86905670166016 C 5.760837554931641 25.88547515869141 -0.01667022705078125 20.23140907287598 3.0517578125e-05 13.24039554595947 C 0.016754150390625 6.249364852905273 6.079463958740234 0.01639556884765625 13.22301864624023 -3.814697265625e-06 Z" stroke="none" fill="#fff"/>
    </g>
    <circle id="Ellipse_66" data-name="Ellipse 66" cx="3.701" cy="3.701" r="3.701" transform="translate(34.709 52.407)" fill="#fff"/>
  </g>
</svg>
